<?xml version="1.0" standalone="no"?>
<!DOCTYPE svg PUBLIC "-//W3C//DTD SVG 20010904//EN"
 "http://www.w3.org/TR/2001/REC-SVG-20010904/DTD/svg10.dtd">
<svg version="1.0" xmlns="http://www.w3.org/2000/svg"
 width="512.000000pt" height="317.000000pt" viewBox="0 0 512.000000 317.000000"
 preserveAspectRatio="xMidYMid meet">
<metadata>
Created by potrace 1.15, written by Peter Selinger 2001-2017
</metadata>
<g transform="translate(0.000000,317.000000) scale(0.100000,-0.100000)"
fill="#000000" stroke="none">
<path d="M2927 1264 c-32 -17 -51 -57 -41 -88 12 -39 104 -136 129 -136 13 0
44 -16 69 -35 50 -38 66 -32 47 17 -9 25 -23 38 -111 101 -39 29 -45 38 -48
75 -2 22 2 50 8 62 9 17 8 20 -7 20 -10 -1 -31 -8 -46 -16z"/>
<path d="M3728 1008 c-5 -227 -3 -378 5 -378 4 0 7 9 7 19 0 11 8 26 18 33 16
11 20 33 26 141 4 70 4 166 0 212 -6 81 -8 85 -30 85 -24 0 -24 -2 -26 -112z"/>
<path d="M3302 174 c-22 -34 -23 -36 -5 -50 17 -13 62 -12 130 2 12 2 25 0 28
-6 3 -5 20 -10 36 -10 17 0 39 -5 50 -10 14 -8 25 -6 44 6 30 19 31 31 6 63
l-18 24 -35 -26 c-41 -32 -48 -33 -41 -8 4 15 -3 20 -31 25 -28 5 -42 2 -66
-15 -16 -13 -30 -26 -30 -31 0 -4 -9 -8 -20 -8 -25 0 -25 5 0 37 11 14 17 29
14 34 -12 19 -40 7 -62 -27z"/>
</g>
</svg>
