<?xml version="1.0" encoding="iso-8859-1"?>
<!-- Generator: Adobe Illustrator 19.0.0, SVG Export Plug-In . SVG Version: 6.00 Build 0)  -->
<svg version="1.1" id="Capa_1" xmlns="http://www.w3.org/2000/svg" xmlns:xlink="http://www.w3.org/1999/xlink" x="0px" y="0px"
	 viewBox="0 0 480.653 480.653" style="enable-background:new 0 0 480.653 480.653;" xml:space="preserve">
<g>
	<g>
		<path style="fill:#4ED9DA;" d="M356.31,196.963v8.359c0.076,11.742-8.709,21.654-20.375,22.988H144.718
			c-11.666-1.334-20.452-11.246-20.376-22.988v-8.359c0-12.984,10.526-23.51,23.51-23.51h184.947
			C345.784,173.453,356.31,183.979,356.31,196.963z"/>
		<path style="fill:#F23B9F;" d="M335.934,228.833v205.845c0,19.332-15.672,35.004-35.004,35.004H179.722
			c-19.332,0-35.004-15.672-35.004-35.004V228.833H335.934z"/>
		<path style="fill:#D4E1F4;" d="M326.53,168.229v5.224H155.167v-5.224c-0.494-41.46,28.77-77.325,69.486-85.159V65.306
			c-5.224-5.224-13.584-14.106-13.584-24.555c-0.291-16.156,12.57-29.488,28.725-29.78c0.351-0.006,0.703-0.006,1.054,0
			c15.87-0.01,28.743,12.846,28.754,28.716c0,0.355-0.006,0.709-0.019,1.064c0,10.449-8.359,19.331-13.584,24.555v17.763
			C296.904,90.845,326.51,126.592,326.53,168.229z"/>
	</g>
	<path style="fill:#083863;" d="M336.456,163.527c-1.612-41.653-29.884-77.52-70.008-88.816v-5.224
		c7.959-7.545,12.805-17.796,13.584-28.735c0.579-21.921-16.723-40.162-38.644-40.74c-0.18-0.005-0.36-0.008-0.54-0.011
		c-22.218-0.002-40.23,18.008-40.232,40.225c0,0.175,0.001,0.351,0.003,0.526c0.779,10.939,5.625,21.19,13.584,28.735v5.224
		c-39.63,11.469-67.433,47.066-68.963,88.294c-17.435,1.638-30.652,16.451-30.302,33.959v8.359c0,13.584,5.224,25.6,20.898,30.825
		v198.531c-0.579,24.808,19.063,45.388,43.871,45.966c0.179,0.004,0.358,0.007,0.538,0.009h120.163
		c24.813-0.282,44.699-20.625,44.417-45.438c-0.002-0.179-0.005-0.358-0.009-0.538V236.147
		c15.673-5.224,20.898-17.241,20.898-30.824v-8.359C366.089,179.924,353.395,165.416,336.456,163.527z M226.742,92.473
		c4.782-0.535,8.389-4.592,8.359-9.404V65.306c-0.039-2.756-1.166-5.385-3.135-7.314c-3.135-3.657-10.449-10.971-10.449-17.241
		c-0.289-10.672,8.129-19.557,18.801-19.846c0.176-0.005,0.353-0.007,0.529-0.007c10.384,0.272,18.581,8.911,18.309,19.295
		c-0.005,0.186-0.013,0.372-0.023,0.558c0,6.269-6.792,13.584-10.449,17.241c-1.969,1.929-3.095,4.558-3.135,7.314v17.763
		c-0.03,4.812,3.577,8.87,8.359,9.404c33.571,7.278,58.657,35.315,62.171,69.486H165.616
		C168.517,127.885,193.316,99.695,226.742,92.473z M135.836,196.963c-0.598-7.189,4.744-13.501,11.933-14.099
		c0.028-0.002,0.056-0.005,0.083-0.007h184.947c7.192,0.552,12.575,6.83,12.023,14.023c-0.002,0.028-0.004,0.056-0.007,0.083v8.359
		c0.304,6.448-4.54,11.985-10.971,12.539c0,0,0,1.045-0.522,1.045c0,0.289-0.234,0.522-0.522,0.522H146.808
		c-6.805-1.073-11.607-7.247-10.971-14.106V196.963z M300.408,459.755H180.244c-13.27-0.276-23.804-11.257-23.528-24.527
		c0.004-0.184,0.01-0.367,0.018-0.551V240.327h167.184v36.571h-62.171c-5.771,0-10.449,4.678-10.449,10.449
		c0,5.771,4.678,10.449,10.449,10.449h62.171v15.673h-26.645c-5.771,0-10.449,4.678-10.449,10.449s4.678,10.449,10.449,10.449
		h26.645v26.122h-62.171c-5.771,0-10.449,4.678-10.449,10.449c0,5.771,4.678,10.449,10.449,10.449h62.171v20.898h-26.645
		c-5.771,0-10.449,4.678-10.449,10.449s4.678,10.449,10.449,10.449h26.645v11.494c0.58,13.26-9.699,24.48-22.96,25.06
		C300.775,459.745,300.591,459.751,300.408,459.755z"/>
</g>
<g>
</g>
<g>
</g>
<g>
</g>
<g>
</g>
<g>
</g>
<g>
</g>
<g>
</g>
<g>
</g>
<g>
</g>
<g>
</g>
<g>
</g>
<g>
</g>
<g>
</g>
<g>
</g>
<g>
</g>
</svg>
